<svg id="visual" viewBox="0 0 960 300" width="960" height="300" xmlns="http://www.w3.org/2000/svg" xmlns:xlink="http://www.w3.org/1999/xlink" version="1.1"><rect x="0" y="0" width="960" height="300" fill="#096002"></rect><path d="M0 139L10 140.2C20 141.3 40 143.7 60 144.3C80 145 100 144 120 140.7C140 137.3 160 131.7 180 133.8C200 136 220 146 240 149C260 152 280 148 300 145.7C320 143.3 340 142.7 360 140.8C380 139 400 136 420 134.5C440 133 460 133 480 133.2C500 133.3 520 133.7 540 136.5C560 139.3 580 144.7 600 145.2C620 145.7 640 141.3 660 138.8C680 136.3 700 135.7 720 134.3C740 133 760 131 780 131.5C800 132 820 135 840 139.7C860 144.3 880 150.7 900 151C920 151.3 940 145.7 950 142.8L960 140L960 0L950 0C940 0 920 0 900 0C880 0 860 0 840 0C820 0 800 0 780 0C760 0 740 0 720 0C700 0 680 0 660 0C640 0 620 0 600 0C580 0 560 0 540 0C520 0 500 0 480 0C460 0 440 0 420 0C400 0 380 0 360 0C340 0 320 0 300 0C280 0 260 0 240 0C220 0 200 0 180 0C160 0 140 0 120 0C100 0 80 0 60 0C40 0 20 0 10 0L0 0Z" fill="#096002"></path><path d="M0 126L10 123C20 120 40 114 60 113.2C80 112.3 100 116.7 120 118.7C140 120.7 160 120.3 180 116.5C200 112.7 220 105.3 240 100.2C260 95 280 92 300 94.2C320 96.3 340 103.7 360 108.7C380 113.7 400 116.3 420 116.7C440 117 460 115 480 111.2C500 107.3 520 101.7 540 101.7C560 101.7 580 107.3 600 109C620 110.7 640 108.3 660 107.2C680 106 700 106 720 104.8C740 103.7 760 101.3 780 101.5C800 101.7 820 104.3 840 107C860 109.7 880 112.3 900 111.8C920 111.3 940 107.7 950 105.8L960 104L960 0L950 0C940 0 920 0 900 0C880 0 860 0 840 0C820 0 800 0 780 0C760 0 740 0 720 0C700 0 680 0 660 0C640 0 620 0 600 0C580 0 560 0 540 0C520 0 500 0 480 0C460 0 440 0 420 0C400 0 380 0 360 0C340 0 320 0 300 0C280 0 260 0 240 0C220 0 200 0 180 0C160 0 140 0 120 0C100 0 80 0 60 0C40 0 20 0 10 0L0 0Z" fill="#287a04"></path><path d="M0 88L10 84.5C20 81 40 74 60 69.5C80 65 100 63 120 66.3C140 69.7 160 78.3 180 82.8C200 87.3 220 87.7 240 81.8C260 76 280 64 300 58.8C320 53.7 340 55.3 360 55C380 54.7 400 52.3 420 52.5C440 52.7 460 55.3 480 62.2C500 69 520 80 540 81.7C560 83.3 580 75.7 600 74.5C620 73.3 640 78.7 660 76C680 73.3 700 62.7 720 61.5C740 60.3 760 68.7 780 69.2C800 69.7 820 62.3 840 58C860 53.7 880 52.3 900 55.3C920 58.3 940 65.7 950 69.3L960 73L960 0L950 0C940 0 920 0 900 0C880 0 860 0 840 0C820 0 800 0 780 0C760 0 740 0 720 0C700 0 680 0 660 0C640 0 620 0 600 0C580 0 560 0 540 0C520 0 500 0 480 0C460 0 440 0 420 0C400 0 380 0 360 0C340 0 320 0 300 0C280 0 260 0 240 0C220 0 200 0 180 0C160 0 140 0 120 0C100 0 80 0 60 0C40 0 20 0 10 0L0 0Z" fill="#449504"></path><path d="M0 19L10 21.8C20 24.7 40 30.3 60 32C80 33.7 100 31.3 120 31.8C140 32.3 160 35.7 180 37.3C200 39 220 39 240 35.8C260 32.7 280 26.3 300 24.7C320 23 340 26 360 28C380 30 400 31 420 29.8C440 28.7 460 25.3 480 26.2C500 27 520 32 540 30.7C560 29.3 580 21.7 600 22.7C620 23.7 640 33.3 660 37.8C680 42.3 700 41.7 720 40.5C740 39.3 760 37.7 780 37.2C800 36.7 820 37.3 840 35.5C860 33.7 880 29.3 900 28C920 26.7 940 28.3 950 29.2L960 30L960 0L950 0C940 0 920 0 900 0C880 0 860 0 840 0C820 0 800 0 780 0C760 0 740 0 720 0C700 0 680 0 660 0C640 0 620 0 600 0C580 0 560 0 540 0C520 0 500 0 480 0C460 0 440 0 420 0C400 0 380 0 360 0C340 0 320 0 300 0C280 0 260 0 240 0C220 0 200 0 180 0C160 0 140 0 120 0C100 0 80 0 60 0C40 0 20 0 10 0L0 0Z" fill="#60b000"></path></svg>